<?xml version="1.0" encoding="utf-8"?>
<!-- Generator: Adobe Illustrator 16.0.0, SVG Export Plug-In . SVG Version: 6.00 Build 0)  -->
<!DOCTYPE svg PUBLIC "-//W3C//DTD SVG 1.1//EN" "http://www.w3.org/Graphics/SVG/1.1/DTD/svg11.dtd">
<svg version="1.1" id="Layer_1" xmlns="http://www.w3.org/2000/svg" xmlns:xlink="http://www.w3.org/1999/xlink" x="0px" y="0px"
	 width="164.751px" height="79.221px" viewBox="0 0 164.751 79.221" enable-background="new 0 0 164.751 79.221"
	 xml:space="preserve">
<g>
	<path fill="#FFFFFF" d="M21.439,51.468c-0.089,0.302-0.285,0.587-0.589,0.855c-0.306,0.269-0.61,0.425-0.915,0.471
		c-0.413,0.062-0.907-0.081-1.481-0.429c-0.575-0.348-1.198-0.832-1.87-1.455s-1.369-1.348-2.094-2.174
		c-0.724-0.825-1.424-1.676-2.101-2.555c-0.677-0.877-1.32-1.754-1.929-2.631c-0.61-0.877-1.134-1.67-1.575-2.383
		c-0.309,2.248-0.587,4.437-0.835,6.564c-0.249,2.129-0.498,4.067-0.748,5.818c-0.565,0.084-1.089,0.006-1.569-0.232
		c-0.481-0.24-0.758-0.599-0.829-1.078c-0.036-0.238-0.029-0.534,0.018-0.886c0.048-0.353,0.104-0.677,0.171-0.977
		c0.377-2.237,0.742-4.333,1.094-6.287c0.353-1.954,0.726-3.851,1.117-5.69c0.393-1.838,0.807-3.679,1.242-5.523
		s0.935-3.788,1.496-5.83c-0.68,0.214-1.281,0.465-1.806,0.755c-0.523,0.29-0.971,0.567-1.343,0.835
		c-0.372,0.267-0.676,0.496-0.915,0.687c-0.237,0.192-0.412,0.296-0.521,0.312c-0.065,0.01-0.157-0.01-0.275-0.059
		c-0.119-0.049-0.245-0.107-0.377-0.178c-0.133-0.068-0.245-0.146-0.335-0.232c-0.092-0.087-0.144-0.173-0.156-0.261
		c0.388-0.235,0.837-0.498,1.351-0.786c0.513-0.288,1.07-0.572,1.674-0.852c0.604-0.278,1.245-0.53,1.923-0.754
		c0.678-0.225,1.388-0.392,2.128-0.502c0.935-0.141,1.909-0.17,2.923-0.088c1.013,0.082,1.953,0.309,2.821,0.68
		c0.866,0.37,1.614,0.903,2.241,1.6c0.626,0.696,1.021,1.588,1.185,2.676c0.159,1.065,0.047,2.022-0.338,2.869
		c-0.385,0.848-0.925,1.59-1.619,2.228c-0.693,0.639-1.49,1.187-2.39,1.644s-1.788,0.834-2.667,1.132
		c-0.878,0.299-1.688,0.531-2.431,0.698c-0.742,0.168-1.299,0.278-1.669,0.334c0.848,1.052,1.65,2.076,2.412,3.074
		c0.762,1,1.593,1.98,2.494,2.947c0.9,0.967,1.916,1.922,3.047,2.864S19.877,50.545,21.439,51.468z M18.271,30.52
		c-0.134-0.891-0.414-1.611-0.841-2.16c-0.427-0.547-0.94-0.965-1.539-1.254c-0.6-0.288-1.259-0.462-1.98-0.521
		c-0.721-0.06-1.45-0.034-2.189,0.077c-0.538,1.615-1.019,3.528-1.444,5.738c-0.426,2.211-0.805,4.509-1.137,6.895
		c1.165-0.242,2.334-0.605,3.507-1.092c1.173-0.488,2.205-1.099,3.097-1.832c0.891-0.734,1.58-1.588,2.068-2.563
		C18.3,32.835,18.452,31.738,18.271,30.52z"/>
	<path fill="#FFFFFF" d="M30.481,37.201c0.124,0.828-0.005,1.642-0.385,2.443c-0.381,0.803-0.921,1.545-1.619,2.228
		s-1.5,1.274-2.403,1.777s-1.817,0.868-2.738,1.095c-0.012,0.224-0.014,0.436-0.006,0.635c0.007,0.199,0.024,0.385,0.051,0.559
		c0.049,0.327,0.135,0.647,0.261,0.963c0.125,0.314,0.305,0.588,0.54,0.82c0.234,0.232,0.532,0.403,0.895,0.516
		c0.361,0.113,0.792,0.133,1.293,0.058c0.696-0.104,1.369-0.36,2.021-0.77c0.65-0.408,1.251-0.927,1.803-1.554
		c0.551-0.628,1.053-1.331,1.503-2.11c0.451-0.779,0.823-1.592,1.12-2.438l0.436,0.235c-0.289,1.045-0.689,2.011-1.201,2.899
		c-0.513,0.888-1.091,1.665-1.736,2.329c-0.646,0.663-1.354,1.208-2.125,1.635s-1.559,0.701-2.362,0.822
		c-1.328,0.198-2.378-0.018-3.15-0.646c-0.772-0.63-1.239-1.479-1.398-2.545c-0.098-0.652-0.086-1.354,0.035-2.107
		c0.121-0.751,0.33-1.505,0.629-2.262c0.298-0.756,0.666-1.49,1.105-2.201c0.438-0.711,0.932-1.352,1.479-1.924
		c0.549-0.57,1.129-1.047,1.739-1.428c0.61-0.38,1.241-0.619,1.895-0.717c0.5-0.075,0.982-0.014,1.445,0.184
		C30.069,35.895,30.36,36.396,30.481,37.201z M28.213,36.539c-0.521,0.078-1.046,0.363-1.573,0.854s-1.016,1.098-1.463,1.82
		s-0.83,1.515-1.146,2.374c-0.316,0.858-0.524,1.696-0.625,2.513c0.559-0.283,1.179-0.671,1.862-1.163
		c0.682-0.491,1.322-1.048,1.918-1.672c0.597-0.623,1.076-1.284,1.438-1.983c0.363-0.699,0.493-1.396,0.389-2.094
		c-0.036-0.239-0.107-0.418-0.214-0.535C28.691,36.534,28.496,36.497,28.213,36.539z"/>
	<path fill="#FFFFFF" d="M41.173,35.733c-0.288-0.29-0.748-0.388-1.379-0.294c-0.848,0.127-1.631,0.507-2.349,1.137
		c-0.718,0.629-1.324,1.371-1.819,2.224c-0.496,0.853-0.858,1.735-1.088,2.649c-0.231,0.912-0.295,1.707-0.194,2.381
		c0.078,0.522,0.24,0.904,0.488,1.145c0.247,0.242,0.545,0.336,0.893,0.283c0.305-0.045,0.636-0.211,0.993-0.498
		s0.719-0.658,1.085-1.113c0.365-0.455,0.727-0.977,1.084-1.564c0.356-0.588,0.698-1.205,1.023-1.854l0.133-1.788
		c-0.001-0.156,0.027-0.338,0.085-0.547s0.14-0.405,0.246-0.588s0.248-0.348,0.426-0.497s0.397-0.243,0.658-0.282
		c0.196-0.029,0.43-0.031,0.7-0.004c0.039,0.261,0.045,0.705,0.016,1.332c-0.028,0.627-0.091,1.359-0.188,2.197
		c-0.098,0.837-0.233,1.753-0.407,2.746c-0.174,0.994-0.372,2.008-0.595,3.043c0.483-0.34,0.963-0.733,1.44-1.184
		c0.478-0.449,0.916-0.943,1.313-1.48c0.397-0.539,0.751-1.114,1.06-1.729c0.309-0.613,0.535-1.253,0.681-1.92l0.473,0.264
		c-0.15,0.778-0.417,1.524-0.8,2.237c-0.382,0.714-0.817,1.375-1.305,1.981c-0.488,0.606-1.007,1.15-1.557,1.635
		c-0.551,0.482-1.06,0.88-1.523,1.195c-0.291,1.178-0.608,2.287-0.953,3.329s-0.73,1.961-1.155,2.759
		c-0.426,0.798-0.891,1.446-1.394,1.943c-0.504,0.498-1.062,0.793-1.67,0.885c-0.479,0.071-0.936-0.01-1.371-0.245
		c-0.436-0.236-0.705-0.69-0.806-1.364c-0.098-0.653,0.014-1.287,0.333-1.902s0.76-1.204,1.32-1.766
		c0.561-0.563,1.182-1.095,1.863-1.598c0.681-0.502,1.344-0.979,1.988-1.432c0.19-0.807,0.355-1.671,0.496-2.594
		c0.14-0.922,0.261-1.935,0.362-3.041c-0.648,1.321-1.364,2.446-2.147,3.375c-0.784,0.93-1.634,1.463-2.547,1.6
		c-0.783,0.117-1.431-0.081-1.941-0.594s-0.837-1.248-0.98-2.206c-0.17-1.131-0.048-2.25,0.365-3.357
		c0.412-1.108,0.996-2.112,1.751-3.016c0.754-0.901,1.598-1.657,2.53-2.263c0.933-0.607,1.845-0.979,2.737-1.111
		c0.63-0.095,1.097-0.059,1.4,0.107c0.303,0.166,0.476,0.391,0.518,0.674c0.029,0.195-0.002,0.355-0.095,0.48
		C41.279,35.63,41.214,35.706,41.173,35.733z M35.34,54.726c0.218-0.032,0.463-0.175,0.737-0.428
		c0.273-0.252,0.557-0.628,0.85-1.128c0.291-0.499,0.59-1.146,0.895-1.936c0.304-0.791,0.595-1.74,0.874-2.851
		c-0.604,0.425-1.18,0.85-1.728,1.276s-1.021,0.865-1.422,1.314c-0.399,0.447-0.71,0.901-0.932,1.357
		c-0.221,0.455-0.297,0.912-0.229,1.369c0.052,0.348,0.164,0.614,0.337,0.799C34.895,54.686,35.101,54.762,35.34,54.726z"/>
	<path fill="#FFFFFF" d="M48.595,33.155c0.196-0.029,0.373,0.005,0.533,0.103c0.159,0.099,0.257,0.268,0.293,0.508
		c0.039,0.261-0.076,0.717-0.346,1.369c-0.27,0.653-0.561,1.386-0.872,2.199c-0.312,0.814-0.58,1.667-0.802,2.557
		c-0.224,0.89-0.277,1.715-0.164,2.477c0.117,0.783,0.326,1.285,0.626,1.508c0.301,0.223,0.723,0.293,1.267,0.211
		c0.37-0.056,0.738-0.199,1.104-0.432c0.365-0.233,0.731-0.577,1.097-1.032s0.724-1.032,1.076-1.729
		c0.352-0.697,0.687-1.548,1.003-2.553l0.342,0.283c-0.186,0.984-0.458,1.876-0.817,2.675c-0.358,0.8-0.784,1.485-1.276,2.06
		s-1.035,1.034-1.629,1.379c-0.594,0.344-1.206,0.564-1.837,0.658c-0.848,0.127-1.52-0.045-2.013-0.516
		c-0.493-0.472-0.796-1.088-0.91-1.85c-0.063-0.414-0.073-0.935-0.034-1.563s0.122-1.303,0.248-2.022
		c0.126-0.719,0.285-1.438,0.478-2.157c0.193-0.718,0.423-1.376,0.689-1.972s0.565-1.09,0.896-1.485
		C47.874,33.435,48.226,33.211,48.595,33.155z M49.87,29.86c-0.37,0.056-0.698,0.016-0.985-0.118
		c-0.287-0.137-0.458-0.388-0.514-0.758c-0.032-0.217,0.013-0.441,0.133-0.67c0.122-0.23,0.284-0.444,0.488-0.642
		s0.441-0.36,0.711-0.489s0.535-0.214,0.797-0.253c0.326-0.049,0.599-0.012,0.817,0.11c0.219,0.123,0.355,0.369,0.41,0.74
		c0.029,0.195,0,0.412-0.087,0.646c-0.087,0.236-0.222,0.451-0.403,0.645c-0.183,0.193-0.391,0.364-0.625,0.511
		C50.379,29.729,50.132,29.821,49.87,29.86z"/>
	<path fill="#FFFFFF" d="M52.568,41.202c-0.098-0.652-0.079-1.167,0.054-1.543c0.133-0.375,0.305-0.668,0.52-0.879
		c0.213-0.21,0.428-0.369,0.646-0.479c0.216-0.11,0.36-0.227,0.431-0.35c0.545-0.814,1.031-1.654,1.459-2.52
		c0.426-0.864,0.781-1.764,1.064-2.695l-0.059-0.392c-0.121-0.805-0.071-1.396,0.15-1.774s0.484-0.59,0.789-0.636
		c0.348-0.052,0.544,0.063,0.586,0.346c0.017,0.109,0.01,0.288-0.02,0.537s-0.016,0.56,0.039,0.929
		c0.082,0.545,0.254,1.103,0.518,1.674c0.264,0.573,0.554,1.174,0.87,1.805c0.317,0.633,0.617,1.294,0.898,1.985
		c0.281,0.692,0.478,1.409,0.588,2.147c0.088,0.588,0.103,1.131,0.044,1.629c0.742-0.245,1.409-0.689,2.003-1.335
		c0.593-0.644,1.111-1.634,1.558-2.97l0.343,0.283c-0.235,1.26-0.72,2.26-1.453,3.004c-0.734,0.744-1.578,1.266-2.535,1.564
		c-0.208,0.988-0.654,1.755-1.34,2.303c-0.686,0.547-1.497,0.891-2.433,1.031c-0.761,0.113-1.423,0.079-1.983-0.104
		c-0.562-0.183-1.031-0.458-1.408-0.824c-0.377-0.365-0.674-0.787-0.891-1.268C52.79,42.193,52.644,41.703,52.568,41.202z
		 M57.183,43.715c0.131-0.02,0.286-0.06,0.466-0.119c0.181-0.061,0.36-0.16,0.54-0.299s0.34-0.322,0.483-0.556
		c0.143-0.232,0.253-0.544,0.327-0.934c-0.939-0.037-1.803-0.269-2.59-0.696c-0.786-0.427-1.396-0.898-1.829-1.412
		c-0.476,0.095-0.657,0.511-0.547,1.25c0.059,0.392,0.176,0.77,0.353,1.132c0.176,0.363,0.401,0.675,0.674,0.935
		c0.272,0.259,0.585,0.457,0.939,0.592C56.354,43.744,56.748,43.78,57.183,43.715z M58.985,39.707
		c-0.156-1.043-0.434-2.041-0.832-2.995c-0.398-0.952-0.753-1.872-1.064-2.76c-0.376,0.901-0.785,1.769-1.228,2.604
		c-0.442,0.833-0.877,1.538-1.302,2.113c0.43,0.647,1.033,1.225,1.81,1.731c0.777,0.506,1.682,0.793,2.715,0.86
		c0.012-0.224,0.011-0.456-0.004-0.699S59.034,40.034,58.985,39.707z"/>
	<path fill="#FFFFFF" d="M73.355,30.717c-2.354,0.619-4.25,1.036-5.686,1.251l-0.489,0.073c-0.325,1.25-0.572,2.5-0.74,3.748
		c-0.169,1.249-0.166,2.46,0.01,3.636c0.144,0.957,0.386,1.61,0.727,1.96c0.342,0.35,0.84,0.475,1.492,0.377
		c1.131-0.17,2.166-0.836,3.104-1.999c0.938-1.163,1.692-2.667,2.263-4.51l0.473,0.263c-0.255,0.973-0.601,1.897-1.037,2.774
		c-0.436,0.878-0.937,1.653-1.503,2.327s-1.195,1.23-1.886,1.668c-0.691,0.436-1.418,0.712-2.179,0.826
		c-1.937,0.289-3.066-0.643-3.389-2.797c-0.146-0.979-0.149-2.186-0.008-3.618c0.141-1.435,0.383-2.944,0.724-4.53
		c-0.224-0.011-0.437-0.018-0.638-0.021c-0.2-0.003-0.393-0.025-0.576-0.063l-0.088-0.587c0.178-0.005,0.387-0.014,0.63-0.028
		c0.242-0.014,0.518-0.032,0.825-0.057c0.281-1.243,0.601-2.454,0.958-3.631c0.358-1.177,0.729-2.233,1.111-3.169
		c0.382-0.936,0.769-1.694,1.16-2.276c0.392-0.581,0.751-0.896,1.077-0.945c0.174-0.026,0.34,0.011,0.5,0.108
		c0.158,0.1,0.257,0.268,0.293,0.508c0.042,0.283-0.031,0.722-0.221,1.317s-0.439,1.296-0.753,2.098
		c-0.314,0.804-0.658,1.7-1.033,2.69c-0.374,0.991-0.726,2.022-1.055,3.095l1.208-0.181c0.718-0.107,1.467-0.23,2.247-0.37
		c0.779-0.139,1.576-0.313,2.391-0.524L73.355,30.717z"/>
	<path fill="#FFFFFF" d="M82.634,29.394c0.124,0.828-0.005,1.643-0.385,2.444c-0.381,0.803-0.921,1.545-1.619,2.228
		s-1.5,1.274-2.403,1.777s-1.817,0.868-2.738,1.095c-0.012,0.224-0.014,0.436-0.006,0.635c0.007,0.199,0.024,0.385,0.051,0.559
		c0.049,0.327,0.135,0.647,0.261,0.963c0.125,0.314,0.305,0.588,0.54,0.82c0.234,0.232,0.532,0.403,0.895,0.516
		c0.361,0.113,0.792,0.133,1.293,0.058c0.696-0.104,1.369-0.36,2.021-0.77c0.65-0.408,1.251-0.927,1.803-1.554
		c0.551-0.629,1.053-1.331,1.503-2.11c0.451-0.779,0.823-1.592,1.12-2.438l0.436,0.235c-0.289,1.045-0.689,2.011-1.201,2.899
		c-0.513,0.888-1.091,1.665-1.736,2.329c-0.646,0.663-1.354,1.208-2.125,1.635s-1.559,0.701-2.362,0.821
		c-1.328,0.199-2.378-0.017-3.15-0.646c-0.772-0.63-1.239-1.479-1.398-2.545c-0.098-0.652-0.086-1.354,0.035-2.107
		c0.121-0.751,0.33-1.505,0.629-2.262c0.298-0.757,0.666-1.49,1.105-2.201c0.438-0.711,0.932-1.352,1.479-1.924
		c0.549-0.57,1.129-1.047,1.739-1.428c0.61-0.38,1.241-0.619,1.895-0.717c0.5-0.075,0.982-0.014,1.445,0.184
		C82.222,28.088,82.513,28.59,82.634,29.394z M80.365,28.732c-0.521,0.078-1.046,0.363-1.573,0.854s-1.016,1.098-1.463,1.82
		s-0.83,1.515-1.146,2.374c-0.316,0.858-0.524,1.696-0.625,2.513c0.559-0.283,1.179-0.672,1.862-1.163
		c0.682-0.491,1.322-1.048,1.918-1.672c0.597-0.623,1.076-1.284,1.438-1.983c0.363-0.699,0.493-1.396,0.389-2.094
		c-0.036-0.239-0.107-0.418-0.214-0.535C80.844,28.728,80.648,28.689,80.365,28.732z"/>
	<path fill="#FFFFFF" d="M84.551,34.846c0.22-0.61,0.493-1.496,0.819-2.658c0.327-1.16,0.626-2.473,0.896-3.938
		c-0.251-0.185-0.398-0.43-0.443-0.734c-0.049-0.326-0.04-0.633,0.028-0.922c0.067-0.289,0.163-0.541,0.286-0.761
		c0.123-0.219,0.253-0.394,0.389-0.524c0.136-0.132,0.248-0.205,0.335-0.218c0.239-0.036,0.391,0.048,0.454,0.249
		c0.063,0.202,0.104,0.357,0.12,0.466c0.01,0.065,0.007,0.161-0.008,0.284c-0.015,0.125-0.039,0.258-0.074,0.396
		c-0.035,0.138-0.061,0.264-0.076,0.378c-0.017,0.114-0.023,0.181-0.021,0.202c0.046,0.306,0.261,0.557,0.647,0.755
		c0.385,0.198,0.809,0.424,1.269,0.678c0.461,0.254,0.898,0.577,1.313,0.971s0.675,0.939,0.778,1.635
		c0.075,0.501,0.063,1.021-0.033,1.558c-0.098,0.537-0.209,1.061-0.333,1.567c-0.124,0.509-0.242,0.987-0.353,1.438
		c-0.11,0.449-0.139,0.849-0.087,1.197c0.059,0.392,0.195,0.638,0.411,0.739c0.215,0.101,0.453,0.132,0.715,0.093
		c0.521-0.078,1.041-0.322,1.559-0.734c0.517-0.41,0.994-0.898,1.432-1.465s0.822-1.162,1.15-1.791
		c0.329-0.627,0.555-1.194,0.679-1.703l0.474,0.264c-0.2,0.742-0.494,1.491-0.881,2.25s-0.846,1.45-1.375,2.074
		c-0.529,0.625-1.106,1.155-1.729,1.594c-0.624,0.438-1.285,0.71-1.98,0.814c-0.74,0.11-1.351,0.002-1.835-0.326
		c-0.482-0.328-0.771-0.808-0.865-1.439c-0.071-0.478-0.055-0.998,0.05-1.559c0.105-0.561,0.232-1.125,0.381-1.691
		c0.149-0.568,0.277-1.121,0.386-1.66s0.131-1.025,0.065-1.461c-0.052-0.348-0.151-0.639-0.298-0.873s-0.326-0.43-0.538-0.587
		c-0.213-0.156-0.438-0.29-0.678-0.399c-0.238-0.108-0.467-0.225-0.686-0.348c-0.164,0.692-0.33,1.367-0.497,2.027
		c-0.169,0.658-0.343,1.28-0.522,1.863c-0.18,0.582-0.35,1.119-0.51,1.61s-0.306,0.892-0.438,1.2L84.551,34.846z"/>
	<path fill="#FFFFFF" d="M123.135,9.284c-0.242,1.06-0.481,2.353-0.722,3.878c-0.238,1.527-0.473,3.158-0.702,4.893
		c-0.229,1.737-0.44,3.521-0.634,5.352c-0.193,1.83-0.342,3.582-0.447,5.256c-0.105,1.673-0.172,3.201-0.198,4.584
		s0.023,2.498,0.15,3.348c-0.696,0.104-1.28-0.009-1.752-0.338c-0.472-0.33-0.868-0.971-1.189-1.925
		c-0.193-0.55-0.446-1.313-0.759-2.288c-0.313-0.977-0.653-2.055-1.019-3.234s-0.746-2.42-1.141-3.718
		c-0.395-1.297-0.777-2.552-1.147-3.765s-0.717-2.34-1.04-3.381c-0.322-1.043-0.58-1.904-0.771-2.588
		c-0.401,3.264-0.756,6.102-1.062,8.517s-0.581,4.476-0.826,6.181c-0.246,1.704-0.476,3.102-0.69,4.19
		c-0.216,1.089-0.432,1.949-0.647,2.583c-0.218,0.633-0.456,1.08-0.718,1.342c-0.261,0.262-0.555,0.417-0.881,0.466
		c0.104-1.083,0.258-2.291,0.459-3.622c0.2-1.332,0.444-2.937,0.73-4.814s0.617-4.086,0.994-6.622s0.806-5.542,1.287-9.019
		c0.026-0.115,0.047-0.313,0.061-0.594c0.014-0.279,0.002-0.539-0.033-0.779c-0.033-0.217-0.098-0.391-0.195-0.52
		c-0.098-0.131-0.232-0.184-0.406-0.157c-0.522,0.078-0.987,0.354-1.396,0.826c-0.407,0.473-0.735,1.033-0.982,1.683
		c-0.248,0.649-0.419,1.324-0.514,2.028s-0.104,1.317-0.025,1.839c0.065,0.436,0.177,0.809,0.334,1.119
		c-0.718,0.107-1.25,0.003-1.598-0.313s-0.561-0.734-0.639-1.256c-0.11-0.739,0.001-1.519,0.335-2.336
		c0.333-0.816,0.782-1.572,1.345-2.27c0.563-0.696,1.197-1.291,1.902-1.787c0.703-0.494,1.371-0.789,2.003-0.883
		c0.652-0.098,1.233,0.104,1.742,0.606s0.97,1.206,1.384,2.112c0.413,0.905,0.794,1.961,1.142,3.165
		c0.348,1.205,0.694,2.448,1.043,3.731c0.293,1.069,0.585,2.131,0.877,3.189c0.292,1.057,0.575,2.061,0.852,3.009
		c0.274,0.948,0.526,1.817,0.756,2.606c0.229,0.788,0.427,1.438,0.592,1.946c-0.001-1.045,0.049-2.243,0.146-3.593
		c0.099-1.348,0.224-2.74,0.376-4.176s0.323-2.857,0.513-4.266c0.19-1.407,0.37-2.691,0.542-3.851c0.171-1.16,0.324-2.14,0.46-2.939
		c0.137-0.798,0.233-1.303,0.291-1.511c0.046-0.142,0.12-0.313,0.224-0.518c0.103-0.205,0.229-0.401,0.379-0.591
		c0.149-0.188,0.329-0.36,0.54-0.515C122.67,9.415,122.895,9.32,123.135,9.284z"/>
	<path fill="#FFFFFF" d="M133.557,29.646c-0.587,0.088-1.125,0.058-1.615-0.092c-0.615,1.093-1.31,2.031-2.081,2.814
		c-0.773,0.781-1.572,1.235-2.399,1.359c-0.936,0.14-1.642-0.049-2.12-0.566c-0.478-0.518-0.778-1.189-0.902-2.018
		c-0.102-0.674-0.098-1.392,0.011-2.153s0.291-1.474,0.548-2.135s0.585-1.228,0.981-1.698s0.823-0.74,1.279-0.809
		c0.196-0.029,0.434-0.01,0.711,0.061c-0.17,0.204-0.355,0.564-0.556,1.084s-0.376,1.09-0.527,1.715
		c-0.151,0.623-0.265,1.24-0.34,1.852c-0.075,0.613-0.082,1.125-0.021,1.539c0.098,0.652,0.271,1.109,0.522,1.373
		c0.251,0.263,0.561,0.365,0.932,0.311c0.456-0.068,0.963-0.395,1.521-0.979c0.558-0.584,1.084-1.303,1.579-2.154
		c-0.706-0.406-1.283-0.994-1.731-1.761c-0.449-0.767-0.736-1.574-0.863-2.423c-0.081-0.544-0.089-1.071-0.021-1.582
		s0.21-0.977,0.426-1.398c0.214-0.422,0.501-0.775,0.858-1.063c0.357-0.288,0.797-0.471,1.319-0.549
		c0.892-0.133,1.525,0.017,1.902,0.45c0.376,0.433,0.618,1.009,0.726,1.727c0.127,0.849,0.061,1.82-0.197,2.915
		c-0.26,1.096-0.633,2.17-1.12,3.221c0.425,0.16,0.854,0.207,1.289,0.142c0.261-0.039,0.544-0.12,0.848-0.244
		c0.304-0.123,0.606-0.302,0.904-0.536c0.299-0.233,0.573-0.52,0.823-0.857c0.25-0.337,0.438-0.749,0.565-1.235l0.44,0.269
		c-0.14,0.555-0.346,1.031-0.62,1.428s-0.579,0.736-0.915,1.02c-0.337,0.285-0.692,0.505-1.069,0.661S133.904,29.594,133.557,29.646
		z M129.903,24.854c0.095,0.632,0.282,1.255,0.563,1.868c0.28,0.615,0.639,1.112,1.074,1.491c0.423-0.886,0.748-1.797,0.976-2.732
		c0.227-0.934,0.281-1.793,0.164-2.576c-0.094-0.631-0.256-1.08-0.484-1.346c-0.229-0.267-0.485-0.378-0.768-0.336
		c-0.218,0.033-0.434,0.154-0.646,0.363c-0.213,0.211-0.396,0.477-0.548,0.799c-0.151,0.324-0.263,0.696-0.333,1.119
		C129.831,23.926,129.832,24.376,129.903,24.854z"/>
	<path fill="#FFFFFF" d="M157.423,23.238c-0.316,1.16-0.735,1.967-1.256,2.423c-0.521,0.456-1.043,0.723-1.565,0.801
		c-0.675,0.101-1.279-0.041-1.815-0.428c-0.536-0.388-0.981-1.021-1.336-1.902c-0.299,0.824-0.64,1.636-1.02,2.438
		s-0.789,1.529-1.225,2.185c-0.437,0.655-0.895,1.196-1.375,1.624c-0.482,0.428-0.972,0.68-1.472,0.755
		c-0.349,0.052-0.649,0.013-0.902-0.116s-0.466-0.33-0.641-0.604c-0.175-0.274-0.318-0.598-0.429-0.971
		c-0.112-0.373-0.2-0.776-0.266-1.212c-0.064-0.435-0.114-0.911-0.147-1.43c-0.032-0.517-0.054-1.031-0.063-1.542
		c-0.263,0.773-0.537,1.538-0.824,2.293c-0.287,0.756-0.614,1.438-0.979,2.048c-0.364,0.611-0.756,1.119-1.173,1.527
		c-0.418,0.407-0.876,0.648-1.376,0.724c-0.371,0.055-0.715,0.017-1.035-0.113s-0.611-0.33-0.875-0.603
		c-0.263-0.271-0.483-0.595-0.661-0.968c-0.179-0.375-0.302-0.79-0.37-1.246c-0.092-0.609-0.099-1.359-0.02-2.25
		c0.078-0.891,0.206-1.738,0.386-2.545c0.181-0.805,0.397-1.504,0.653-2.099s0.504-0.909,0.743-0.945
		c0.065-0.01,0.165-0.009,0.301,0.005c0.136,0.013,0.272,0.037,0.411,0.072c0.14,0.034,0.27,0.088,0.391,0.158
		c0.122,0.071,0.189,0.15,0.203,0.236c-0.132,0.309-0.285,0.738-0.459,1.287c-0.173,0.549-0.328,1.149-0.464,1.804
		s-0.236,1.315-0.304,1.981c-0.066,0.666-0.061,1.271,0.021,1.814c0.02,0.131,0.059,0.32,0.118,0.566
		c0.059,0.248,0.145,0.485,0.257,0.713c0.112,0.229,0.257,0.418,0.436,0.568c0.178,0.151,0.398,0.207,0.658,0.168
		c0.371-0.055,0.734-0.298,1.093-0.729c0.357-0.433,0.705-0.979,1.039-1.641c0.335-0.661,0.659-1.395,0.973-2.198
		c0.313-0.803,0.599-1.602,0.858-2.397c0.03-0.693,0.064-1.243,0.104-1.65s0.088-0.714,0.146-0.923s0.137-0.348,0.237-0.419
		c0.101-0.07,0.228-0.117,0.38-0.14c0.282-0.043,0.52-0.018,0.712,0.076s0.306,0.26,0.342,0.5c0.01,0.065,0.006,0.188-0.012,0.369
		c-0.071,0.41-0.12,0.901-0.146,1.473c-0.025,0.57-0.03,1.172-0.014,1.803c0.017,0.632,0.045,1.268,0.086,1.906
		c0.039,0.64,0.101,1.231,0.182,1.775c0.16,1.066,0.479,1.563,0.957,1.492c0.326-0.049,0.676-0.313,1.05-0.792
		c0.373-0.479,0.74-1.072,1.102-1.783c0.36-0.71,0.704-1.495,1.032-2.356c0.326-0.86,0.617-1.7,0.874-2.517
		c-0.127-0.849-0.182-1.546-0.164-2.095c0.019-0.547,0.08-0.99,0.186-1.328c0.104-0.338,0.247-0.576,0.427-0.715
		c0.18-0.138,0.367-0.223,0.563-0.252c0.413-0.062,0.733,0.041,0.963,0.307c0.229,0.266,0.361,0.52,0.397,0.758
		c0.032,0.219,0.004,0.439-0.084,0.663c-0.09,0.225-0.181,0.507-0.274,0.842c-0.095,0.337-0.167,0.748-0.216,1.234
		c-0.05,0.485-0.021,1.087,0.087,1.806c0.039,0.262,0.097,0.536,0.173,0.824c0.077,0.289,0.188,0.551,0.335,0.784
		c0.146,0.234,0.328,0.413,0.547,0.536s0.502,0.157,0.85,0.105c0.457-0.068,0.866-0.308,1.228-0.717
		c0.361-0.41,0.691-1.104,0.989-2.084L157.423,23.238z"/>
</g>
<g transform="translate(0.000000,1280.000000) scale(0.100000,-0.100000)">
	<path fill="#FFFFFF" d="M1321.465,12292.714c-109.736-35.098-301.201-103.809-347.69-167.803
		c-46.479-63.984-20.322-119.648-17.031-117.031c56.108,152.656,326.685,244.111,326.689,244.111c0,0,182.759,84.102,364.082,80.771
		C1539.526,12356.093,1371.811,12308.769,1321.465,12292.714z"/>
</g>
</svg>
